<svg width="147" height="50" viewBox="0 0 147 50" fill="none" xmlns="http://www.w3.org/2000/svg">
<path d="M58.8205 19.3792V17.3638H60.4359V19.3792H58.8205ZM52.3589 19.3792C50.6666 19.3792 49.3692 19.0407 48.4666 18.3638C47.5743 17.6766 47.1282 16.6817 47.1282 15.3792C47.1282 15.133 47.1436 14.8766 47.1743 14.6099C47.2051 14.3433 47.241 14.0869 47.282 13.8407C47.323 13.5945 47.3641 13.3792 47.4051 13.1945C47.4461 12.9997 47.4769 12.851 47.4974 12.7484L49.7897 13.1945C49.7589 13.3484 49.7179 13.5484 49.6666 13.7945C49.6154 14.0407 49.5692 14.3022 49.5282 14.5792C49.4974 14.8458 49.482 15.1022 49.482 15.3484C49.482 15.8817 49.6 16.2971 49.8359 16.5945C50.0718 16.8817 50.4102 17.0817 50.8513 17.1945C51.3025 17.3074 51.8513 17.3638 52.4974 17.3638H56.4666V11.6407H58.8205V19.3792H52.3589ZM60.4359 19.3792V17.3638C60.5487 17.3638 60.6256 17.4561 60.6666 17.6407C60.7179 17.8151 60.7436 18.0561 60.7436 18.3638C60.7436 18.6715 60.7179 18.9176 60.6666 19.1022C60.6256 19.2869 60.5487 19.3792 60.4359 19.3792ZM51.9589 22.8253V20.9484H54.3282V22.8253H51.9589Z" fill="#163458"/>
<path d="M60.4401 19.3792V17.3638H64.5785L63.1478 18.5484V11.6407H65.5016V19.3792H60.4401ZM60.4401 19.3792C60.3273 19.3792 60.2503 19.2869 60.2093 19.1022C60.158 18.9176 60.1324 18.6715 60.1324 18.3638C60.1324 18.0561 60.158 17.8151 60.2093 17.6407C60.2503 17.4561 60.3273 17.3638 60.4401 17.3638V19.3792ZM61.0555 22.7176V20.8407H63.4247V22.7176H61.0555ZM63.1631 22.7176V20.8407H65.5324V22.7176H63.1631Z" fill="#163458"/>
<path d="M70.4003 23.3484C70.0105 23.3484 69.6054 23.3176 69.1849 23.2561C68.7644 23.2048 68.3234 23.1279 67.8618 23.0253L68.2157 21.1484C68.7182 21.2099 69.1439 21.2561 69.4926 21.2869C69.8516 21.3176 70.1541 21.333 70.4003 21.333C71.0977 21.333 71.6003 21.2099 71.908 20.9638C72.2157 20.7176 72.3695 20.3433 72.3695 19.8407V13.3176L72.8464 13.6561H71.1388C70.79 13.6561 70.4977 13.7022 70.2618 13.7945C70.0259 13.8766 69.8464 14.0561 69.7234 14.333C69.6105 14.5997 69.5541 15.0151 69.5541 15.5792C69.5541 16.1022 69.6054 16.492 69.708 16.7484C69.8105 17.0048 69.9798 17.174 70.2157 17.2561C70.4516 17.3279 70.7593 17.3638 71.1388 17.3638H72.3695V19.3792H71.1388C70.2772 19.3792 69.549 19.2407 68.9541 18.9638C68.3695 18.6869 67.9285 18.2663 67.6311 17.7022C67.3439 17.1381 67.2003 16.4304 67.2003 15.5792C67.2003 14.7176 67.3439 13.9945 67.6311 13.4099C67.9285 12.8253 68.3695 12.3843 68.9541 12.0869C69.549 11.7894 70.2772 11.6407 71.1388 11.6407H74.7234V19.8407C74.7234 20.5587 74.5439 21.1792 74.1849 21.7022C73.8259 22.2356 73.3234 22.6407 72.6772 22.9176C72.0311 23.2048 71.2721 23.3484 70.4003 23.3484Z" fill="#163458"/>
<path d="M79.808 23.3484C79.6952 23.3484 79.5567 23.3381 79.3926 23.3176C79.2285 23.3074 79.0593 23.2971 78.8849 23.2869L78.9618 21.3022C79.1259 21.3022 79.2849 21.3074 79.4387 21.3176C79.5926 21.3279 79.7054 21.333 79.7772 21.333C80.1567 21.333 80.4541 21.1843 80.6695 20.8869C80.8952 20.5894 81.008 20.1586 81.008 19.5945V11.6407H83.3618V19.5945C83.3618 20.3228 83.2131 20.9689 82.9157 21.533C82.6182 22.1074 82.2029 22.5535 81.6695 22.8715C81.1362 23.1894 80.5157 23.3484 79.808 23.3484ZM81.008 10.2099V8.33301H83.3772V10.2099H81.008Z" fill="#163458"/>
<path d="M88.0506 19.3792V17.3638H89.7583V19.3792H88.0506ZM85.7122 19.3792V8.56378H88.0506V19.3792H85.7122ZM89.7583 19.3792V17.3638C89.8814 17.3638 89.9635 17.4561 90.0045 17.6407C90.0455 17.8151 90.066 18.0561 90.066 18.3638C90.066 18.6715 90.0455 18.9176 90.0045 19.1022C89.9635 19.2869 89.8814 19.3792 89.7583 19.3792Z" fill="#163458"/>
<path d="M97.8443 19.3792V17.3638H99.4597V19.3792H97.8443ZM89.752 19.3792V17.3638H96.3058L95.4904 17.9945V15.5022C95.4904 14.9074 95.3058 14.4561 94.9366 14.1484C94.5674 13.8304 93.9725 13.6715 93.152 13.6715C92.9263 13.6715 92.6238 13.6869 92.2443 13.7176C91.8648 13.7484 91.4494 13.7945 90.9981 13.8561L90.7827 12.0099C91.2135 11.9074 91.6494 11.8202 92.0904 11.7484C92.5417 11.6766 92.9776 11.6407 93.3981 11.6407C94.2597 11.6407 95.0238 11.7997 95.6904 12.1176C96.3571 12.4253 96.8802 12.8663 97.2597 13.4407C97.6494 14.0048 97.8443 14.692 97.8443 15.5022V19.3792H89.752ZM89.752 19.3792C89.6391 19.3792 89.5622 19.2869 89.5212 19.1022C89.4699 18.9176 89.4443 18.6715 89.4443 18.3638C89.4443 18.0561 89.4699 17.8151 89.5212 17.6407C89.5622 17.4561 89.6391 17.3638 89.752 17.3638V19.3792ZM99.4597 19.3792V17.3638C99.5725 17.3638 99.6494 17.4561 99.6904 17.6407C99.7417 17.8151 99.7674 18.0561 99.7674 18.3638C99.7674 18.6715 99.7417 18.9176 99.6904 19.1022C99.6494 19.2869 99.5725 19.3792 99.4597 19.3792ZM92.6135 22.8253V20.9484H94.9827V22.8253H92.6135Z" fill="#163458"/>
<path d="M99.4575 19.3792V17.3638H102.488L101.057 18.5484V11.6407H103.411V19.3792H99.4575ZM99.4575 19.3792C99.3447 19.3792 99.2678 19.2869 99.2267 19.1022C99.1754 18.9176 99.1498 18.6715 99.1498 18.3638C99.1498 18.0561 99.1754 17.8151 99.2267 17.6407C99.2678 17.4561 99.3447 17.3638 99.4575 17.3638V19.3792ZM101.057 10.2099V8.33301H103.427V10.2099H101.057Z" fill="#163458"/>
<path d="M105.859 19.3792V8.56378H108.198V19.3792H105.859ZM106.029 24.133C105.824 23.8869 105.665 23.651 105.552 23.4253C105.449 23.1997 105.398 22.9638 105.398 22.7176C105.398 22.3381 105.495 21.9997 105.69 21.7022C105.885 21.4151 106.141 21.1843 106.459 21.0099C106.777 20.8458 107.126 20.7638 107.506 20.7638C107.721 20.7638 107.936 20.7894 108.152 20.8407C108.367 20.9022 108.547 20.9843 108.69 21.0869L108.136 22.1176C108.044 22.0663 107.947 22.0304 107.844 22.0099C107.752 21.9894 107.659 21.9792 107.567 21.9792C107.321 21.9792 107.131 22.0458 106.998 22.1792C106.865 22.3125 106.798 22.4817 106.798 22.6869C106.798 22.8099 106.824 22.9279 106.875 23.0407C106.926 23.1535 107.003 23.2663 107.106 23.3792L106.029 24.133ZM105.044 24.2869V23.0869H109.013V24.2869H105.044Z" fill="#163458"/>
<path d="M4.37692 33.5418V34.0721H1.81538C1.35897 34.0721 1 34.0081 0.738462 33.88C0.476923 33.7519 0.287179 33.5495 0.169231 33.2728C0.0564103 32.991 0 32.6093 0 32.1276C0 31.6511 0.0538462 31.2694 0.161538 30.9824C0.274359 30.6955 0.45641 30.4854 0.707692 30.3522C0.964103 30.219 1.30769 30.1524 1.73846 30.1524C1.92821 30.1524 2.21795 30.1626 2.60769 30.1831C3.00256 30.1985 3.3 30.2164 3.5 30.2369V33.5418H4.37692ZM0.592308 32.1122C0.592308 32.4658 0.633333 32.745 0.715385 32.95C0.802564 33.1549 0.941026 33.3061 1.13077 33.4035C1.32051 33.4957 1.58205 33.5418 1.91538 33.5418H2.90769V30.7365C2.45641 30.7057 2.10769 30.6904 1.86154 30.6904C1.39487 30.6904 1.06667 30.8005 0.876923 31.0209C0.68718 31.2412 0.592308 31.605 0.592308 32.1122ZM1.19231 28.8688H1.77692V29.5144H1.19231V28.8688ZM2.15385 28.8688H2.73846V29.5144H2.15385V28.8688Z" fill="#163458"/>
<path d="M6.11827 30.2292V34.0721H4.37981V33.5418H5.52596V30.2292H6.11827ZM5.04135 34.687H5.62596V35.3326H5.04135V34.687ZM6.00288 34.687H6.5875V35.3326H6.00288V34.687Z" fill="#163458"/>
<path d="M7.60799 35.9859C7.52594 35.9859 7.44902 35.9833 7.37722 35.9782C7.31056 35.9731 7.25158 35.9679 7.2003 35.9628L7.03876 35.9475V35.4248C7.29517 35.4453 7.45671 35.4556 7.52338 35.4556C7.77979 35.4556 7.96953 35.3531 8.09261 35.1481C8.22081 34.9483 8.28492 34.6665 8.28492 34.3027V30.2369H8.87722V34.1567C8.87722 35.3761 8.45415 35.9859 7.60799 35.9859Z" fill="#163458"/>
<path d="M11.4281 33.5418V34.0721H10.1127V28.5537H10.705V33.5418H11.4281Z" fill="#163458"/>
<path d="M16.0876 33.5418V34.0721H11.4261V33.5418H12.5184C12.3799 33.2702 12.3107 32.8373 12.3107 32.2429C12.3107 31.7151 12.3645 31.3078 12.4722 31.0209C12.5851 30.7339 12.7697 30.5315 13.0261 30.4137C13.2876 30.2958 13.6569 30.2369 14.1338 30.2369C14.5235 30.2369 14.8774 30.2548 15.1953 30.2907L15.4107 30.3138V33.5418H16.0876ZM12.8953 32.2275C12.8953 32.8783 12.9902 33.3163 13.1799 33.5418H14.8184V30.7826C14.4697 30.757 14.2235 30.7442 14.0799 30.7442C13.7569 30.7442 13.5107 30.7928 13.3415 30.8902C13.1722 30.9875 13.0543 31.1413 12.9876 31.3513C12.9261 31.5614 12.8953 31.8535 12.8953 32.2275ZM13.0799 28.8688H13.6645V29.5144H13.0799V28.8688ZM14.0415 28.8688H14.6261V29.5144H14.0415V28.8688Z" fill="#163458"/>
<path d="M20.8064 33.5418V34.0721H19.9987C19.7423 34.0721 19.4808 34.0414 19.2141 33.9799C18.9475 33.9184 18.7039 33.8313 18.4834 33.7186C18.2628 33.8262 18.0218 33.9133 17.7603 33.9799C17.5039 34.0414 17.25 34.0721 16.9987 34.0721H16.091V33.5418H16.9757C17.2885 33.5418 17.6013 33.4829 17.9141 33.365C17.5193 33.0627 17.2039 32.7066 16.968 32.2967C16.7321 31.8868 16.609 31.5256 16.5987 31.213L16.5757 30.6673C17.2321 30.324 17.8654 30.1524 18.4757 30.1524C19.0808 30.1524 19.7193 30.324 20.391 30.6673L20.368 31.213C20.3577 31.4128 20.3013 31.6408 20.1987 31.897C20.0962 32.1481 19.9449 32.4043 19.7449 32.6656C19.55 32.9269 19.3193 33.1575 19.0526 33.3573C19.3603 33.4803 19.6731 33.5418 19.991 33.5418H20.8064ZM17.1834 30.9671C17.1834 31.3872 17.3013 31.7817 17.5372 32.1507C17.7731 32.5145 18.0885 32.8219 18.4834 33.073C18.8731 32.8219 19.1885 32.5119 19.4295 32.143C19.6705 31.7741 19.791 31.3821 19.791 30.9671C19.2834 30.7775 18.8475 30.6827 18.4834 30.6827C18.1295 30.6827 17.6962 30.7775 17.1834 30.9671Z" fill="#163458"/>
<path d="M22.3471 28.5537V34.0721H20.8086V33.5418H21.7547V28.5537H22.3471Z" fill="#163458"/>
<path d="M23.732 28.5537H24.3243V34.0721H23.732V28.5537Z" fill="#163458"/>
<path d="M31.9748 30.2292V34.0721H29.1132C28.6209 34.0721 28.2312 34.0311 27.944 33.9491C27.6568 33.8672 27.4466 33.7365 27.3132 33.5572C27.185 33.3778 27.1209 33.1319 27.1209 32.8193C27.1209 32.4299 27.2004 31.8484 27.3594 31.0747L27.8209 31.0977L27.744 31.7126C27.7389 31.7689 27.7209 31.9124 27.6901 32.143C27.6645 32.3684 27.6517 32.5478 27.6517 32.681C27.6517 32.9013 27.6953 33.073 27.7825 33.1959C27.8748 33.3189 28.0235 33.4086 28.2286 33.4649C28.4389 33.5162 28.7312 33.5418 29.1055 33.5418H31.3825V30.2292H31.9748ZM28.8825 29.5836H29.4671V30.2292H28.8825V29.5836ZM29.844 29.5836H30.4286V30.2292H29.844V29.5836Z" fill="#163458"/>
<path d="M34.5951 33.5418V34.0721H33.2797V28.5537H33.8721V33.5418H34.5951Z" fill="#163458"/>
<path d="M37.2393 30.1524C37.8649 30.1524 38.3265 30.3061 38.6239 30.6135C38.9214 30.9209 39.0701 31.4333 39.0701 32.1507V34.0721H34.5932V33.5418H35.8624C35.7906 33.1011 35.7547 32.6528 35.7547 32.1968C35.7547 31.8535 35.7752 31.5153 35.8162 31.1823C35.8573 30.8441 35.9034 30.57 35.9547 30.3599C36.0778 30.3086 36.2573 30.2625 36.4932 30.2215C36.729 30.1754 36.9778 30.1524 37.2393 30.1524ZM36.347 32.1968C36.347 32.4479 36.3573 32.6989 36.3778 32.95C36.4034 33.1959 36.429 33.3932 36.4547 33.5418H38.4778V32.143C38.4778 31.6203 38.3675 31.2463 38.147 31.0209C37.9265 30.7954 37.5906 30.6827 37.1393 30.6827C36.888 30.6827 36.6649 30.7083 36.4701 30.7595C36.388 31.2053 36.347 31.6844 36.347 32.1968Z" fill="#163458"/>
<path d="M43.6516 33.5418V34.0721H39.8362V33.5418H42.3362V32.6502C42.3362 31.8919 42.1875 31.3616 41.8901 31.0593C41.5978 30.7519 41.2542 30.5981 40.8593 30.5981H40.2362L40.1978 30.16C40.2491 30.1395 40.3516 30.1191 40.5055 30.0986C40.6644 30.0781 40.8157 30.0678 40.9593 30.0678C41.5183 30.0678 41.985 30.2702 42.3593 30.675C42.7388 31.0747 42.9285 31.7279 42.9285 32.6349V33.5418H43.6516Z" fill="#163458"/>
<path d="M48.2065 33.5418V34.0721H43.6526V33.5418H46.7373V31.4589C46.7373 31.2028 46.6706 31.0106 46.5373 30.8825C46.4039 30.7493 46.2039 30.6827 45.9373 30.6827C45.7065 30.6827 45.2501 30.7237 44.568 30.8057L44.3526 30.8287L44.3296 30.3906C45.1039 30.2318 45.6834 30.1524 46.068 30.1524C46.9091 30.1524 47.3296 30.5904 47.3296 31.4666V33.5418H48.2065ZM45.6373 28.8688H46.2219V29.5144H45.6373V28.8688Z" fill="#163458"/>
<path d="M50.7203 33.5418V34.0721H48.2049V33.5418H49.1511V28.5537H49.7434V33.5418H50.7203Z" fill="#163458"/>
<path d="M52.2599 28.5537V34.0721H50.7215V33.5418H51.6676V28.5537H52.2599Z" fill="#163458"/>
<path d="M59.3273 33.5418V34.0721H56.7658C56.3094 34.0721 55.9504 34.0081 55.6889 33.88C55.4273 33.7519 55.2376 33.5495 55.1197 33.2728C55.0068 32.991 54.9504 32.6093 54.9504 32.1276C54.9504 31.6511 55.0043 31.2694 55.112 30.9824C55.2248 30.6955 55.4068 30.4854 55.6581 30.3522C55.9145 30.219 56.2581 30.1524 56.6889 30.1524C56.8786 30.1524 57.1684 30.1626 57.5581 30.1831C57.953 30.1985 58.2504 30.2164 58.4504 30.2369V33.5418H59.3273ZM55.5427 32.1122C55.5427 32.4658 55.5838 32.745 55.6658 32.95C55.753 33.1549 55.8914 33.3061 56.0812 33.4035C56.2709 33.4957 56.5325 33.5418 56.8658 33.5418H57.8581V30.7365C57.4068 30.7057 57.0581 30.6904 56.812 30.6904C56.3453 30.6904 56.0171 30.8005 55.8273 31.0209C55.6376 31.2412 55.5427 31.605 55.5427 32.1122ZM56.1427 28.8688H56.7273V29.5144H56.1427V28.8688ZM57.1043 28.8688H57.6889V29.5144H57.1043V28.8688Z" fill="#163458"/>
<path d="M61.8456 33.5418V34.0721H59.3302V33.5418H60.2764V28.5537H60.8687V33.5418H61.8456Z" fill="#163458"/>
<path d="M64.4929 30.1524C65.1186 30.1524 65.5801 30.3061 65.8775 30.6135C66.175 30.9209 66.3237 31.4333 66.3237 32.1507V34.0721H61.8468V33.5418H63.116C63.0442 33.1011 63.0083 32.6528 63.0083 32.1968C63.0083 31.8535 63.0288 31.5153 63.0698 31.1823C63.1109 30.8441 63.157 30.57 63.2083 30.3599C63.3314 30.3086 63.5109 30.2625 63.7468 30.2215C63.9827 30.1754 64.2314 30.1524 64.4929 30.1524ZM63.6006 32.1968C63.6006 32.4479 63.6109 32.6989 63.6314 32.95C63.657 33.1959 63.6827 33.3932 63.7083 33.5418H65.7314V32.143C65.7314 31.6203 65.6211 31.2463 65.4006 31.0209C65.1801 30.7954 64.8442 30.6827 64.3929 30.6827C64.1416 30.6827 63.9186 30.7083 63.7237 30.7595C63.6416 31.2053 63.6006 31.6844 63.6006 32.1968Z" fill="#163458"/>
<path d="M68.7898 33.5418V34.0721H67.4745V28.5537H68.0668V33.5418H68.7898Z" fill="#163458"/>
<path d="M73.934 33.5418V34.0721H68.7879V33.5418H72.2417V32.4274C72.2417 32.1199 72.1827 31.8535 72.0648 31.628C71.952 31.4026 71.7622 31.2873 71.4956 31.2822H69.4109L69.0186 30.7519L69.4186 29.9679C69.5109 29.7834 69.6494 29.5606 69.834 29.2992C70.0238 29.0328 70.2135 28.7843 70.4033 28.5537L70.8263 28.792C70.5904 29.1455 70.4135 29.4196 70.2956 29.6144C70.1776 29.8039 70.0699 29.9935 69.9725 30.1831L69.6802 30.7519H71.5417C71.9879 30.7519 72.3135 30.9081 72.5186 31.2207C72.7289 31.5332 72.834 31.938 72.834 32.435V33.5418H73.934Z" fill="#163458"/>
<path d="M76.8182 33.5418V34.0721H73.934V33.5418H75.0798V30.2292H75.6721V33.5418H76.8182ZM74.6028 28.8688H75.1874V29.5144H74.6028V28.8688ZM75.5644 28.8688H76.149V29.5144H75.5644V28.8688Z" fill="#163458"/>
<path d="M82.1567 33.5418V34.0721H81.9105C81.8131 34.0721 81.708 34.0465 81.5951 33.9953C81.4874 33.9389 81.3874 33.8646 81.2951 33.7724V34.0721H76.8182V33.5418H78.0874C78.0156 33.1011 77.9798 32.6528 77.9798 32.1968C77.9798 31.8535 78.0003 31.5153 78.0413 31.1823C78.0823 30.8441 78.1285 30.57 78.1797 30.3599C78.3028 30.3086 78.4823 30.2625 78.7182 30.2215C78.9541 30.1754 79.2028 30.1524 79.4644 30.1524C80.09 30.1524 80.5515 30.3061 80.849 30.6135C81.1464 30.9209 81.2951 31.4333 81.2951 32.1507V33.2497C81.4592 33.4444 81.6644 33.5418 81.9105 33.5418H82.1567ZM78.5721 32.1968C78.5721 32.4479 78.5823 32.6989 78.6028 32.95C78.6285 33.1959 78.6541 33.3932 78.6798 33.5418H80.7028V32.143C80.7028 31.6203 80.5926 31.2463 80.3721 31.0209C80.1516 30.7954 79.8156 30.6827 79.3644 30.6827C79.1131 30.6827 78.89 30.7083 78.6951 30.7595C78.6131 31.2053 78.5721 31.6844 78.5721 32.1968Z" fill="#163458"/>
<path d="M83.6977 28.5537V34.0721H82.1593V33.5418H83.1054V28.5537H83.6977Z" fill="#163458"/>
<path d="M85.0826 28.5537H85.6749V34.0721H85.0826V28.5537Z" fill="#163458"/>
<path d="M90.387 35.9782C90.0126 35.9782 89.6716 35.909 89.3639 35.7707C89.0562 35.6323 88.8126 35.4402 88.6331 35.1942C88.4536 34.9483 88.3639 34.6665 88.3639 34.3488C88.3639 34.1541 88.3947 33.8262 88.4562 33.365C88.5177 32.9039 88.5895 32.4402 88.6716 31.9739L89.2408 32.0046C89.1639 32.5068 89.0972 32.9807 89.0408 33.4265C88.9844 33.8672 88.9562 34.1618 88.9562 34.3104C88.9562 34.5307 89.0177 34.728 89.1408 34.9022C89.269 35.0764 89.4408 35.2096 89.6562 35.3018C89.8716 35.3992 90.11 35.4479 90.3716 35.4479C90.7511 35.4479 91.0716 35.348 91.3331 35.1481C91.5998 34.9534 91.7331 34.6742 91.7331 34.3104V28.5537H92.3254V34.3795C92.3254 34.7228 92.2357 35.0149 92.0562 35.2557C91.8818 35.4966 91.6459 35.6759 91.3485 35.7937C91.0562 35.9167 90.7357 35.9782 90.387 35.9782Z" fill="#163458"/>
<path d="M97.3757 34.0721H96.4141C96.3834 34.7177 96.2628 35.1968 96.0526 35.5094C95.8475 35.8219 95.5218 35.9782 95.0757 35.9782C94.8398 35.9782 94.4526 35.9398 93.9141 35.8629V35.3403C94.391 35.412 94.7654 35.4479 95.0372 35.4479C95.2167 35.4479 95.3603 35.4146 95.468 35.348C95.5808 35.2865 95.6705 35.1558 95.7372 34.956C95.8039 34.7562 95.8372 34.4615 95.8372 34.0721H94.7064C94.1475 34.0721 93.7757 33.8953 93.591 33.5418C93.4116 33.1883 93.3218 32.7297 93.3218 32.166C93.3218 31.6895 93.368 31.3027 93.4603 31.0055C93.5526 30.7032 93.7193 30.4752 93.9603 30.3214C94.2013 30.1626 94.5372 30.0832 94.968 30.0832C95.1731 30.0832 95.4193 30.0986 95.7064 30.1293C95.9987 30.16 96.2398 30.1933 96.4295 30.2292V33.5418H97.3757V34.0721ZM93.9141 32.1507C93.9141 32.5606 93.9808 32.8962 94.1141 33.1575C94.2475 33.4137 94.5192 33.5418 94.9295 33.5418H95.8372V30.6673C95.5603 30.6314 95.3193 30.6135 95.1141 30.6135C94.8013 30.6135 94.5577 30.6724 94.3834 30.7903C94.209 30.903 94.0859 31.0721 94.0141 31.2975C93.9475 31.5179 93.9141 31.8022 93.9141 32.1507Z" fill="#163458"/>
<path d="M99.894 33.5418V34.0721H97.3786V33.5418H98.3248V28.5537H98.9171V33.5418H99.894Z" fill="#163458"/>
<path d="M104.449 33.5418V34.0721H99.8951V33.5418H102.98V31.4589C102.98 31.2028 102.913 31.0106 102.78 30.8825C102.646 30.7493 102.446 30.6827 102.18 30.6827C101.949 30.6827 101.493 30.7237 100.811 30.8057L100.595 30.8287L100.572 30.3906C101.346 30.2318 101.926 30.1524 102.311 30.1524C103.152 30.1524 103.572 30.5904 103.572 31.4666V33.5418H104.449Z" fill="#163458"/>
<path d="M106.963 33.5418V34.0721H104.447V33.5418H105.394V28.5537H105.986V33.5418H106.963Z" fill="#163458"/>
<path d="M108.502 28.5537V34.0721H106.964V33.5418H107.91V28.5537H108.502Z" fill="#163458"/>
<g clip-path="url(#clip0_81_27)">
<path d="M146.834 33.9625L146.806 34.8133C146.799 35.101 146.788 35.3869 146.741 35.664C146.659 36.2306 146.612 36.7989 146.459 37.3532L146.258 38.1863C146.203 38.474 146.088 38.7352 145.999 39.0105C145.267 41.1974 144.058 43.2343 142.447 44.9481C140.847 46.6602 138.856 48.0299 136.646 48.8983C135.521 49.3307 134.36 49.6502 133.177 49.8285C131.991 49.982 130.79 50.0544 129.604 49.9555C127.217 49.8249 124.885 49.1419 122.742 48.0652C121.673 47.5092 120.647 46.8508 119.695 46.0848C118.758 45.2852 117.891 44.4486 117.113 43.4178C115.578 41.3969 114.59 38.9876 114.264 36.4548C113.933 33.9219 114.254 31.2461 115.418 28.8563C116.551 26.5017 118.353 24.5125 120.693 23.2187C121.857 22.5674 123.167 22.1421 124.529 21.9832C124.873 21.9514 125.214 21.9214 125.557 21.9144C125.904 21.9214 126.246 21.9391 126.585 21.955C126.923 22.0026 127.252 22.052 127.583 22.1103C127.921 22.165 128.244 22.2709 128.571 22.3645C129.851 22.7669 131.074 23.4111 132.091 24.3166C133.112 25.215 133.951 26.3517 134.471 27.6384C134.975 28.9216 135.155 30.3566 134.961 31.7015C134.896 32.0422 134.816 32.3634 134.74 32.6899C134.658 33.02 134.52 33.3148 134.413 33.6236C134.304 33.9325 134.136 34.2096 133.987 34.492C133.833 34.7674 133.684 35.048 133.483 35.3057C133.105 35.8335 132.662 36.3241 132.128 36.7478C131.597 37.1696 130.984 37.5155 130.292 37.6973C128.934 38.0751 127.541 37.8491 126.442 37.159C125.324 36.4724 124.614 35.2881 124.463 34.1196C124.377 33.546 124.409 32.9706 124.524 32.4216C124.629 31.8868 124.813 31.375 125.072 30.9125C124.916 31.9557 125.036 33.0023 125.426 33.8531C125.815 34.6932 126.498 35.2739 127.254 35.5034C128 35.7329 128.837 35.6411 129.42 35.2969C130 34.9739 130.483 34.3738 130.802 33.6501C130.888 33.4718 130.949 33.2795 131.016 33.08C131.074 32.8876 131.159 32.7023 131.182 32.5099C131.21 32.314 131.271 32.1322 131.277 31.9398C131.273 31.7509 131.298 31.5656 131.294 31.3838C131.291 30.6531 131.081 29.97 130.729 29.3699C130.037 28.1485 128.723 27.2907 127.324 27.0083C127.147 26.9853 126.978 26.9288 126.794 26.9218C126.613 26.9147 126.44 26.9077 126.256 26.8847C126.083 26.8918 125.913 26.9024 125.739 26.9024L125.221 26.9818C124.54 27.1089 123.876 27.3895 123.235 27.7637C122.612 28.152 122.02 28.6586 121.516 29.2463C121.004 29.8306 120.57 30.4854 120.246 31.1879C119.612 32.5505 119.348 34.1743 119.554 35.7735C119.756 37.369 120.365 38.9435 121.297 40.2655L121.672 40.7456L122.087 41.208C122.22 41.3722 122.372 41.5204 122.526 41.6651C122.689 41.8099 122.826 41.9634 122.995 42.1011C123.638 42.6606 124.333 43.1619 125.086 43.5943C125.85 44.0056 126.641 44.3868 127.48 44.6445C127.885 44.8016 128.314 44.8881 128.732 45.0117C129.165 45.077 129.59 45.2005 130.03 45.2376C131.765 45.4635 133.534 45.3241 135.197 44.8228C136.886 44.2986 138.483 43.4267 139.838 42.2247C142.579 39.8577 144.335 36.2377 144.479 32.3793C144.479 31.9027 144.458 31.412 144.454 30.932C144.396 30.4483 144.356 29.9612 144.274 29.474C144.162 29.0045 144.079 28.5103 143.96 28.032C143.831 27.5519 143.671 27.0806 143.491 26.6147C142.766 24.7473 141.645 23.0016 140.192 21.5049C143.729 23.7288 146.256 27.7955 146.739 32.2804C146.769 32.84 146.837 33.3995 146.829 33.9661" fill="#163458"/>
<path d="M134.376 11.3457C134.289 11.2274 134.196 11.1039 134.108 10.9856H134.131L133.961 10.795C132.819 9.32293 131.522 7.94267 130.063 6.67714C125.787 2.96703 120.738 0.758966 115.548 0C117.063 5.06389 119.983 9.76596 124.258 13.4743C125.729 14.7504 127.293 15.8518 128.927 16.7714L129.005 16.819L129.093 16.8808V16.8667C129.223 16.9373 129.352 17.015 129.485 17.0803L129.765 20.8539V20.861L139.957 23.3479L140.003 23.3603L139.952 23.3303L139.948 23.3267L132.534 18.4923C134.555 19.2883 136.649 19.8355 138.77 20.1426C138.146 18.0705 137.29 16.0583 136.203 14.1521L142.073 20.8522L142.109 20.891L142.095 20.8504L138.127 11.065L138.124 11.0615L134.371 11.3457H134.376ZM128.396 11.1427C127.617 12.0552 126.256 12.1576 125.351 11.3721C124.449 10.5902 124.347 9.21879 125.127 8.30627C125.906 7.39375 127.267 7.29137 128.167 8.07329C129.072 8.85873 129.174 10.2302 128.396 11.1427Z" fill="#163458"/>
</g>
<defs>
<clipPath id="clip0_81_27">
<rect width="32.6923" height="50" fill="white" transform="translate(114.142)"/>
</clipPath>
</defs>
</svg>
